<svg id="Capa_1" enable-background="new 0 0 512 512" height="512" viewBox="0 0 512 512" width="512" xmlns="http://www.w3.org/2000/svg"><g><g clip-rule="evenodd" fill-rule="evenodd"><path d="m256.014 504.516c119.537 0 217.049-97.512 217.049-217.051 0-119.566-97.512-217.053-217.049-217.053-119.564 0-217.049 97.486-217.049 217.053 0 119.539 97.484 217.051 217.049 217.051z" fill="#98e5fa"/><path d="m256.014 70.412c119.878 0 217.049 97.174 217.049 217.053s-97.171 217.051-217.049 217.051c-4.081 0-8.135-.141-12.132-.34 114.208-6.322 204.917-100.914 204.917-216.711 0-115.826-90.709-210.418-204.917-216.713 3.997-.227 8.051-.34 12.132-.34z" fill="#8bdef5"/><g fill="#b3e59f"><path d="m45.314 235.053h69.619c9.582 0 23.414-1.984 45.723-23.756 22.281-21.799 33.364-29.254 56.211-31.098 22.848-1.812 33.364-12.33 42.52-35.631 5.159-13.209 16.355-46.176 25.087-72.313-9.326-1.221-18.822-1.844-28.461-1.844-101.82.001-187.255 70.075-210.699 164.642z"/><path d="m315.57 287.465c-28.006.453-50.939 22.904-50.939 50.939 0 28.008 22.933 50.91 50.939 50.91h132.15c16.158-30.359 25.342-65.055 25.342-101.85 0-29.934-6.065-58.451-17.008-84.389-35.206 11.225-67.237 30.756-90.765 58.111-15.703 18.285-26.333 25.882-49.719 26.279z"/><path d="m237.816 441.615c-35.462-.312-42.236-53.178-88.668-53.633h-85.55c36.255 69.279 108.822 116.533 192.415 116.533 12.303 0 24.35-1.02 36.086-3.004-3.912-10.518-7.37-19.531-9.695-25.031-9.58-22.789-20.551-34.638-44.588-34.865z"/></g><path d="m237.816 441.615c-35.462-.312-42.236-53.178-88.668-53.633h-85.55c3.855 7.398 8.136 14.514 12.784 21.373h55.531c46.431.455 53.206 53.293 88.667 53.633 24.038.199 35.008 12.047 44.589 34.838.766 1.785 1.616 3.939 2.58 6.377 8.248-.453 16.384-1.359 24.35-2.691-3.912-10.518-7.37-19.531-9.695-25.031-9.58-22.79-20.551-34.639-44.588-34.866z" fill="#95d6a4"/><path d="m127.35 48.586h4.904c10.006 0 18.198 8.191 18.198 18.197v29.852c0 7.908-5.103 14.684-12.188 17.178-3.572 1.275-6.01 1.133-6.01 6.01v40.166c0 10.035-8.192 18.229-18.199 18.229h-10.913c-10.034 0-18.227-8.193-18.227-18.229v-40.166c0-4.479-2.692-4.82-6.066-6.039-7.058-2.494-12.132-9.27-12.132-17.148v-29.853c0-10.006 8.191-18.197 18.198-18.197z" fill="#ffc343"/><path d="m368.946 216.994h4.904c10.006 0 18.198 8.193 18.198 18.199v29.85c0 7.908-5.103 14.684-12.189 17.178-3.6 1.275-6.009 1.133-6.009 6.01v40.195c0 10.006-8.192 18.199-18.227 18.199h-10.913c-10.006 0-18.198-8.193-18.198-18.199v-40.196c0-4.451-2.721-4.82-6.094-6.01-7.059-2.523-12.133-9.299-12.133-17.178v-29.85c0-10.006 8.192-18.199 18.227-18.199h42.434z" fill="#3291bc"/><path d="m197.507 321.707h4.904c10.007 0 18.198 8.193 18.198 18.227v29.852c0 7.908-5.103 14.684-12.189 17.178-3.601 1.275-6.01 1.133-6.01 6.01v40.166c0 10.008-8.192 18.199-18.227 18.199h-10.913c-10.007 0-18.199-8.191-18.199-18.199v-40.166c0-4.479-2.721-4.82-6.094-6.039-7.03-2.521-12.133-9.27-12.133-17.148v-29.852c0-10.033 8.192-18.227 18.227-18.227h42.436z" fill="#fb999f"/><path d="m368.55 205.883c0 10.119-8.277 18.396-18.368 18.396-10.12 0-18.397-8.277-18.397-18.396v-19.674c0-5.668 4.649-10.289 10.29-10.289h26.476c-.001 9.978-.001 19.984-.001 29.963z" fill="#ffccbf"/><path d="m126.981 37.475c0 10.119-8.277 18.396-18.397 18.396-10.091 0-18.368-8.277-18.368-18.396v-19.674c0-5.668 4.62-10.289 10.29-10.289h26.476c-.001 9.978-.001 19.984-.001 29.963z" fill="#ffccbf"/><path d="m197.11 310.625c0 10.119-8.277 18.367-18.368 18.367-10.12 0-18.398-8.248-18.398-18.367v-19.703c0-5.641 4.649-10.26 10.29-10.26h26.476z" fill="#ffccbf"/><path d="m456.055 203.076c-7.199 2.295-14.229 4.932-21.117 7.908 8.957 23.783 13.861 49.551 13.861 76.48 0 36.795-9.185 71.49-25.342 101.85h24.264c16.158-30.359 25.342-65.055 25.342-101.85-.001-29.933-6.066-58.45-17.008-84.388z" fill="#95d6a4"/><path d="m114.934 235.053c9.582 0 23.414-1.984 45.723-23.756 22.281-21.799 33.364-29.254 56.211-31.098 22.848-1.812 33.364-12.33 42.52-35.631 4.876-12.502 15.165-42.719 23.641-68.061.482-1.445.964-2.863 1.446-4.252-6.889-.908-13.861-1.475-20.92-1.73-.256.709-.482 1.389-.709 2.098-6.774 20.014-13.578 39.658-17.291 49.127-9.156 23.301-19.673 33.816-42.52 35.66-22.848 1.814-34.47 8.447-56.211 31.066-21.771 22.65-31.891 23.783-45.724 23.783h-48.755c-2.749 7.4-5.103 15.025-7.03 22.793h69.619z" fill="#95d6a4"/><path d="m367.784 265.043c0 7.908-5.131 14.684-12.189 17.178-3.601 1.275-6.038 1.133-6.038 6.01v40.195c0 7.654-4.79 14.23-11.509 16.922 2.069.822 4.309 1.277 6.661 1.277h10.914c10.034 0 18.227-8.193 18.227-18.199v-40.196c0-4.877 2.409-4.734 6.009-6.01 7.087-2.494 12.189-9.27 12.189-17.178v-29.85c0-10.006-8.192-18.199-18.198-18.199h-9.043c-1.134 1.475-2.494 2.807-4.024 3.885 4.252 3.344 7.001 8.531 7.001 14.314z" fill="#2b89b5"/><path d="m196.345 369.785c0 7.908-5.13 14.684-12.188 17.178-3.601 1.275-6.038 1.133-6.038 6.01v40.166c0 7.654-4.79 14.26-11.509 16.924 2.069.822 4.309 1.275 6.662 1.275h10.913c10.034 0 18.227-8.191 18.227-18.199v-40.166c0-4.877 2.409-4.734 6.01-6.01 7.086-2.494 12.189-9.27 12.189-17.178v-29.852c0-10.033-8.191-18.227-18.198-18.227h-9.042c-1.135 1.504-2.495 2.807-4.025 3.912 4.252 3.316 7.001 8.504 7.001 14.314v29.853z" fill="#f0888f"/><path d="m126.188 96.635c0 7.908-5.103 14.684-12.189 17.178-3.571 1.275-6.009 1.133-6.009 6.01v40.166c0 7.684-4.791 14.26-11.537 16.951 2.069.822 4.337 1.277 6.689 1.277h10.913c10.007 0 18.199-8.193 18.199-18.229v-40.166c0-4.877 2.438-4.734 6.01-6.01 7.086-2.494 12.188-9.27 12.188-17.178v-29.851c0-10.006-8.192-18.197-18.198-18.197h-9.043c-1.134 1.475-2.494 2.777-3.996 3.883 4.252 3.346 6.973 8.504 6.973 14.314z" fill="#f7b82e"/></g><path d="m319 294.836c-1.021.027-2.126.084-3.316.084-12.02.199-22.961 5.16-30.897 13.096-7.823 7.797-12.643 18.512-12.643 30.389 0 11.934 4.876 22.789 12.756 30.672 7.88 7.852 18.737 12.756 30.671 12.756h49.096c4.139 0 7.483 3.344 7.483 7.483 0 4.168-3.345 7.512-7.483 7.512h-49.097c-16.072 0-30.699-6.576-41.272-17.148-10.602-10.602-17.15-25.201-17.15-41.273 0-16.045 6.52-30.473 17.036-40.99 8.504-8.504 19.643-14.457 32.06-16.582-3.401-4.338-5.442-9.836-5.442-15.789v-29.85c0-7.086 2.892-13.492 7.54-18.172 4.224-4.223 9.922-6.973 16.214-7.455-.17-1.189-.255-2.438-.255-3.684v-19.674c0-4.902 1.984-9.354 5.216-12.586 3.203-3.203 7.653-5.215 12.558-5.215h26.476c4.139 0 7.483 3.373 7.483 7.512v29.963c0 1.246-.085 2.494-.255 3.684 6.321.482 11.99 3.232 16.214 7.455 1.871 1.9 3.458 4.055 4.705 6.408 7.002-4.764 14.344-9.1 21.94-13.012 8.731-4.479 17.83-8.42 27.213-11.764-10.375-22.195-24.548-42.266-41.669-59.387-30.444-30.416-70.187-51.535-114.634-58.678-4.337 12.955-9.185 27.297-13.663 40.195-3.939 11.367-7.369 20.977-9.524 26.504-5.017 12.785-10.544 22.168-18.17 28.801-7.908 6.889-17.602 10.545-30.727 11.594-4.848.396-9.921.936-14.627 2.154-3.996 1.021-8.05-1.389-9.07-5.385-1.02-3.998 1.389-8.08 5.386-9.1 5.641-1.445 11.339-2.154 17.121-2.609 9.751-.793 16.725-3.287 22.082-7.965 5.612-4.875 9.921-12.416 14.06-22.932 2.324-5.953 5.641-15.279 9.354-25.938 3.855-11.141 8.391-24.492 12.643-37.219-6.066-.512-12.188-.795-18.397-.795-18.283 0-35.942 2.324-52.724 6.662-16.186 4.195-31.606 10.289-46.007 18-1.134 4.705-3.543 8.93-6.859 12.246-2.948 2.947-6.604 5.158-10.658 6.434v38.75c0 7.088-2.892 13.521-7.54 18.172-4.678 4.648-11.084 7.539-18.171 7.539h-10.913c-7.087 0-13.521-2.891-18.17-7.539-1.673-1.674-3.09-3.545-4.252-5.613-9.468 14.4-17.206 30.076-22.903 46.688-.965 2.75-1.843 5.527-2.693 8.334h59.556c17.632 0 28.602-8.959 40.593-21.459 3.798-3.998 7.71-7.938 11.764-11.68 3.033-2.807 7.767-2.607 10.572.453 2.807 3.033 2.608 7.768-.425 10.574-3.855 3.543-7.54 7.256-11.14 11.027-15.138 15.789-29.141 26.08-51.279 26.08h-63.499c-3.146 14.455-4.818 29.48-4.818 44.9 0 33.393 7.823 64.998 21.741 93.035h63.524c-1.502-3.26-2.352-6.889-2.352-10.715v-29.852c0-7.086 2.892-13.52 7.54-18.17 4.224-4.223 9.922-7 16.215-7.482-.171-1.191-.256-2.41-.256-3.656v-19.703c0-4.875 1.984-9.324 5.216-12.557 3.203-3.232 7.653-5.215 12.558-5.215h26.476c4.139 0 7.512 3.344 7.512 7.512v29.963c0 1.246-.113 2.465-.283 3.656 6.321.482 11.99 3.26 16.214 7.482 4.648 4.65 7.54 11.084 7.54 18.17v29.852c0 7.086-2.892 13.492-7.54 18.17-2.948 2.92-6.576 5.158-10.658 6.406v23.045c4.082 4.451 8.164 8.533 12.501 11.566 4.535 3.117 9.524 5.131 15.478 5.188 5.158.027 9.978.51 14.994 1.812 3.998 1.021 6.407 5.076 5.387 9.072s-5.103 6.406-9.1 5.387c-3.6-.908-7.682-1.305-11.395-1.334-9.382-.084-17.036-3.117-23.839-7.822-1.531-1.078-3.033-2.211-4.451-3.402-.991 5.188-3.515 9.836-7.114 13.436-4.649 4.65-11.083 7.541-18.17 7.541h-10.913c-7.087 0-13.521-2.891-18.171-7.541-4.648-4.648-7.54-11.082-7.54-18.17v-37.645h-71.153c8.844 14.627 19.389 28.121 31.408 40.139 37.927 37.928 90.312 61.371 148.194 61.371 8.731 0 17.349-.539 25.824-1.588-.737-1.928-1.445-3.797-2.154-5.611-1.645-4.281-3.061-7.853-4.167-10.432-1.587-3.828-3.401-7.654-5.442-11.254s-.794-8.164 2.807-10.205c3.6-2.041 8.163-.793 10.176 2.807 2.381 4.166 4.394 8.447 6.236 12.869 1.247 2.92 2.693 6.605 4.337 10.828.992 2.551 2.098 5.443 3.288 8.59 41.442-8.193 78.52-28.631 107.264-57.375 11.65-11.65 21.939-24.689 30.613-38.807h-36.17c-4.139 0-7.483-3.344-7.483-7.512 0-4.139 3.345-7.483 7.483-7.483h44.532c14.315-28.377 22.394-60.435 22.394-94.367 0-26.447-4.903-51.762-13.832-75.035-8.986 3.176-17.773 6.947-26.221 11.312-9.1 4.676-17.802 10.006-25.966 15.986v25.314c0 7.086-2.892 13.522-7.54 18.17-2.948 2.947-6.576 5.188-10.658 6.434v38.779c0 7.059-2.892 13.492-7.54 18.143-4.649 4.648-11.084 7.539-18.17 7.539h-10.914c-7.086 0-13.52-2.891-18.17-7.539-4.648-4.65-7.54-11.084-7.54-18.143zm-158.371 34.242c-1.588.311-3.912.141-5.557.141-2.947 0-5.612 1.219-7.568 3.146-1.928 1.957-3.146 4.621-3.146 7.568v29.852c0 2.947 1.219 5.611 3.146 7.568 1.956 1.928 4.621 3.147 7.568 3.147 4.139 0 7.483 3.344 7.483 7.482v45.156c0 2.949 1.22 5.613 3.146 7.568 1.956 1.928 4.621 3.146 7.569 3.146h10.913c2.948 0 5.612-1.219 7.568-3.146 1.928-1.955 3.146-4.619 3.146-7.568v-45.156c0-4.139 3.345-7.482 7.512-7.482 2.92 0 5.612-1.219 7.54-3.147 1.956-1.957 3.146-4.621 3.146-7.568v-29.852c0-2.947-1.191-5.611-3.146-7.568-1.928-1.928-4.62-3.146-7.54-3.146-1.786 0-3.969.142-5.669-.027-4.678 4.506-11.027 7.312-18 7.312-7.056 0-13.434-2.834-18.111-7.426zm25.766-10.771c1.984-1.984 3.203-4.707 3.203-7.682v-22.48h-18.964c-1.502 0-2.778 1.275-2.778 2.777v19.703c0 2.975 1.22 5.697 3.203 7.682 1.984 1.984 4.678 3.203 7.683 3.203 2.977 0 5.697-1.219 7.653-3.203zm-51.93-280.832c0 1.246-.085 2.465-.256 3.684 6.293.455 11.991 3.232 16.215 7.455 4.648 4.65 7.54 11.084 7.54 18.17v18.654c13.181-6.436 27.099-11.594 41.556-15.336 18.113-4.707 37.049-7.201 56.494-7.201 61.994 0 118.148 25.145 158.77 65.766 40.648 40.648 65.764 96.777 65.764 158.799 0 59.867-23.613 116.646-65.764 158.771-40.622 40.648-96.776 65.763-158.77 65.763-62.021 0-118.148-25.115-158.797-65.764-42.15-42.152-65.764-98.904-65.764-158.771 0-24.916 4.082-49.578 12.161-73.107 7.88-22.848 19.389-44.078 33.817-62.986v-30.133c-4.082-1.275-7.738-3.486-10.658-6.434-4.678-4.648-7.568-11.084-7.568-18.17v-29.852c0-7.086 2.891-13.52 7.568-18.17 4.224-4.223 9.893-7 16.214-7.455-.17-1.219-.283-2.438-.283-3.684v-19.673c0-4.904 2.013-9.354 5.216-12.586 3.231-3.203 7.682-5.215 12.586-5.215h26.476c4.139 0 7.483 3.373 7.483 7.512zm-7.881 18.566c-4.648 4.506-10.998 7.312-18 7.312-7.029 0-13.436-2.834-18.085-7.426-1.587.311-3.94.141-5.584.141-2.92 0-5.612 1.219-7.54 3.146-1.956 1.957-3.146 4.621-3.146 7.568v29.852c0 2.947 1.19 5.611 3.146 7.568 1.928 1.928 4.62 3.146 7.54 3.146 4.139 0 7.512 3.344 7.512 7.482v45.156c0 2.949 1.19 5.613 3.146 7.57 1.956 1.926 4.62 3.146 7.568 3.146h10.913c2.92 0 5.613-1.221 7.541-3.146 1.955-1.957 3.175-4.621 3.175-7.57v-45.156c0-4.139 3.345-7.482 7.483-7.482 2.947 0 5.612-1.219 7.568-3.146 1.928-1.957 3.146-4.621 3.146-7.568v-29.851c0-2.947-1.219-5.611-3.146-7.568-1.956-1.928-4.621-3.146-7.568-3.146-1.757-.001-3.939.142-5.669-.028zm-10.318-10.885c1.984-1.984 3.204-4.705 3.204-7.682v-22.48h-18.964c-1.531 0-2.778 1.277-2.778 2.807v19.674c0 2.977 1.219 5.697 3.175 7.682 1.984 1.984 4.705 3.203 7.682 3.203 2.976-.001 5.697-1.219 7.681-3.204zm215.802 179.209c-1.588.283-3.912.113-5.557.113-2.947 0-5.612 1.219-7.568 3.176-1.928 1.926-3.146 4.619-3.146 7.539v29.85c0 2.947 1.219 5.611 3.146 7.568 1.956 1.955 4.621 3.147 7.568 3.147 4.139 0 7.483 3.373 7.483 7.512v45.156c0 2.92 1.22 5.584 3.147 7.541 1.956 1.955 4.62 3.147 7.568 3.147h10.914c2.948 0 5.612-1.191 7.568-3.147 1.927-1.957 3.146-4.621 3.146-7.541v-45.156c0-4.139 3.345-7.512 7.512-7.512 2.919 0 5.612-1.191 7.54-3.147 1.956-1.957 3.147-4.621 3.147-7.568v-29.85c0-2.92-1.19-5.613-3.147-7.539-1.956-1.957-4.621-3.176-7.54-3.176-1.786 0-3.969.143-5.669-.027-4.678 4.535-11.027 7.312-18 7.312-7.057.001-13.435-2.833-18.112-7.398zm25.767-10.801c1.983-1.957 3.203-4.678 3.203-7.682v-22.479h-18.964c-1.502 0-2.778 1.275-2.778 2.805v19.674c0 3.004 1.22 5.725 3.203 7.682 1.956 1.984 4.678 3.203 7.683 3.203 2.975.001 5.697-1.218 7.653-3.203z"/></g></svg>